<svg version="1.2" xmlns="http://www.w3.org/2000/svg" viewBox="0 0 380 91" width="380" height="91">
	<title>鸿盛仓资源集团有限公司-ai</title>
	<style>
		.s0 { fill: #ffffff } 
		.s1 { fill: #024724 } 
	</style>
	<g id="图层 1">
		<path id="&lt;Path&gt;" class="s0" d="m411.5 267h-442.2v-442.1h442.2z"/>
		<g id="&lt;Group&gt;">
			<g id="&lt;Group&gt;">
				<path id="&lt;Path&gt;" class="s1" d="m52.7 26.4c9.1 5.4 14.3 13.3 15.1 23.8 0.8 9.8-2.4 18.2-9.6 24.7q-0.7 0.6-1.4 1.1-0.1-0.1-0.2-0.2 0.1-0.1 0.2-0.3 0.6-0.6 1.1-1.2c2.5-2.7 4.5-5.8 6.2-9.2 1-2.1 1.7-4.4 1.7-6.7 0-0.7 0-1.5-0.9-1.7-0.9-0.1-1.3 0.6-1.6 1.3-0.7 1.8-1.4 3.7-2.4 5.4-1.1 2.1-2.5 4-4.1 5.7q-0.4 0.5-0.8 0.9-0.1 0.1-0.1 0.1-0.6 0.6-1.3 1.2-0.8 0.7-1.7 1.3-0.5 0.3-1.1 0.7-0.4 0.3-0.9 0.5c-1.5 1-3 1.8-4.5 2.8-1.2 0.7-2.2 1.6-3 2.7q-0.4 0.6-0.8 1.3c0 0.2-0.1 0.3-0.2 0.5-1.1 3-2.6 7.1-2.3 9.1 12.6-0.1 29.3-9.7 32.6-26.8 3.4-17.5-7.4-32.2-20-37z"/>
				<path id="&lt;Path&gt;" class="s1" d="m32.6 80.3c-0.5-1.3-1.4-2.3-2.4-3.1q-0.6-0.5-1.2-0.9c-2.1-1.4-4.4-2.5-6.5-4q-0.8-0.6-1.6-1.2-0.7-0.6-1.3-1.2-0.5-0.4-0.9-0.9-0.1-0.1-0.2-0.2-0.3-0.3-0.5-0.6-0.6-0.7-1.1-1.4-1.2-1.7-2.3-3.5c-0.9-1.7-1.6-3.5-2.3-5.3-0.3-0.7-0.6-1.4-1.5-1.2-0.9 0.1-1 0.9-1 1.6 0.1 2.3 0.7 4.5 1.7 6.6q1.5 3 3.4 5.7 1.4 2 3 3.8 0.4 0.4 0.8 0.7 0.1 0.2 0.2 0.4-0.1 0.1-0.2 0.2-1-0.8-1.8-1.6-1.3-1.2-2.4-2.5c-5.1-5.9-7.3-13.1-6.6-21.4 0.8-10.3 5.8-18.1 14.9-23.4-12.4 4.7-23.1 19.2-19.8 36.4 3.3 16.8 19.9 26.8 32.3 26.9 0.3-1.9-1.3-6.5-2.4-9.4-0.1-0.2-0.2-0.4-0.3-0.5z"/>
				<g id="&lt;Group&gt;">
					<path id="&lt;Compound Path&gt;" fill-rule="evenodd" class="s1" d="m39.8 78.8q-2.2-0.4-4.7-1-1.8-2.5-4.8-4.4c-1.2-0.8-2.5-1.5-3.7-2.2-1.9-1.1-3.6-2.2-5.3-3.3-0.7-0.5-1.4-1-2.2-1.7q-0.8-0.7-1.6-1.5-0.6-0.5-1.1-1.1l2.4-1.2-1.5-3.6 1.1-1.3-0.4-3.2-3.4 7.2q-0.8-0.9-1.5-2l4.8-9.5 2.1 2.5 3.3-8.9 1.9-1.3 2.5-6.2 0.1 0.3q0-0.7 0-1.3c0-0.1-0.1-0.3-0.2-0.4 0 0 0-0.1 0-0.2 0 0 0.1-0.1 0.2-0.1q0.3 0 0.6 0 0.4 0 0.7 0 0.3 0.1 0.1 0.3c-0.1 0.1-0.2 0.3-0.2 0.5q0 2.6 0 5.2l0.1 0.2 5.2-10.9q-0.1 0-0.1-0.1c-0.1-0.1-0.3-0.2-0.2-0.3 0-0.1 0.1-0.3 0.2-0.3q0.2 0 0.4 0l0.5-1.2q-0.4 0-0.8 0c-0.1 0-0.3-0.1-0.3-0.2-0.1-0.1 0.1-0.3 0.2-0.4 0-0.1 0.2-0.2 0.2-0.3q0-5.3 0-10.7 0 0 0-0.1c-0.1-0.1-0.2-0.1-0.2-0.1-0.1-0.1-0.3-0.3-0.2-0.4 0-0.1 0.2-0.2 0.3-0.2q1.2 0 2.4 0c0.1 0 0.3 0.1 0.3 0.2 0 0.1-0.1 0.3-0.2 0.4 0 0-0.1 0-0.2 0.1q0 5.5 0 11c0.1 0.1 0.2 0.1 0.3 0.1 0 0.1 0.2 0.3 0.1 0.4 0 0.1-0.1 0.2-0.3 0.2q-0.5 0-0.9 0l0.4 1.2q0.3 0 0.6 0c0.1 0 0.2 0.2 0.3 0.3 0 0.1-0.2 0.2-0.3 0.3 0 0.1-0.2 0.2-0.2 0.3q0 0 0 0l6 14.6 1.5-3q0 0 0 0c-0.6 0-1.2 0-1.7 0-0.2 0-0.3-0.2-0.4-0.3q0.1-0.2 0.3-0.4c0-0.1 0.1-0.2 0.1-0.4q0-3 0-6 0.1-0.6 0-1.3c0-0.1-0.1-0.2-0.2-0.4 0-0.1-0.2-0.2-0.2-0.3 0.1-0.1 0.2-0.3 0.4-0.3 0.4 0 0.9 0 1.3 0 0.7 0 1.4 0 2 0 0.2 0 0.4 0.1 0.5 0.3 0.1 0.2-0.1 0.3-0.3 0.4-0.1 0-0.1 0.2-0.1 0.3q-0.1 3.2 0 6.3l5.1 13.5 2.1-1.9 5.9 12.9q-0.4 0.4-0.8 0.8-0.8 0.8-1.6 1.5c-0.8 0.6-1.4 1.1-2 1.6v-0.5l-0.5-7.4-1.4-5.9-1.8 1.7-2.3 6.6 3.4 2.9 0.6 3.8q-1.7 1.1-3.5 2.2c-1.2 0.7-2.5 1.4-3.7 2.2q-3.6 2.2-5.5 5.4zm2.9-30.5l1.6 10-0.7 2.1 1.6 3.4-1.4 8.9 3-7.1 0.5-5.2-1.3-4 0.5-4.5-1.2-9.5zm-13.5 6.5l-1.3-3.9 0.9-1.9-1.3-7.3-1 3-2.5 1.5-3.4 10.2 1 3.9 1.7-2.1 2.4 6 1.2-6.8zm11.3-2.1l-6.4-9.6 0.3-3.4q0.1-2.9 0.1-5.8 0-0.3 0-0.6l-4.5 10.2 2.4 10.5-1.4 5.8 3.9 8.1-1.5-8.9 2.1-3.4-0.4-3.8 3.4 3.1-0.5 8.5z"/>
					<g id="&lt;Group&gt;">
						<path id="&lt;Path&gt;" class="s1" d="m42.4 31.5q1.4 0.1 2.8 0.1c0.2 0 0.4 0 0.6-0.1 0.1 0 0.3-0.1 0.4-0.2q-0.1-0.2-0.3-0.4-0.1 0-0.1 0 0-4 0-8 0 0 0.1 0 0.1-0.2 0.3-0.5c-0.1 0-0.3-0.2-0.4-0.2q-1.7 0-3.5 0c-0.1 0-0.3 0.1-0.3 0.2 0 0.2 0.1 0.3 0.2 0.4 0.1 0.1 0.2 0.2 0.2 0.3q0.1 0.7 0 1.4 0 3 0 6c0 0.1 0 0.3-0.1 0.4-0.2 0.1-0.4 0.2-0.3 0.4 0.1 0.1 0.3 0.2 0.4 0.2z"/>
						<path id="&lt;Path&gt;" class="s1" d="m42.2 21q-0.1 0.2-0.2 0.4c0.1 0 0.2 0.2 0.4 0.2 0.5 0 1 0 1.5 0q1 0 1.9 0c0.1 0 0.3-0.2 0.4-0.3q-0.1-0.1-0.3-0.3 0-0.1-0.1-0.1 0-4 0-7.9 0 0 0 0c0.2-0.2 0.4-0.3 0.4-0.5 0-0.3-0.3-0.3-0.6-0.3q-1 0-2.1 0c-0.4 0-0.8 0-1.2 0.1-0.1 0-0.3 0.1-0.3 0.2 0 0.1 0.1 0.3 0.2 0.3 0.3 0.1 0.2 0.3 0.2 0.5q0 1.5 0 3.1 0 2.1 0 4.2c0 0.1-0.1 0.3-0.2 0.4z"/>
						<path id="&lt;Path&gt;" class="s1" d="m34.4 8q0 2.6 0 5.2c0 0.1-0.1 0.2-0.1 0.3q-0.2 0.3-0.4 0.4c0.2 0.1 0.4 0.3 0.5 0.3q1.1 0 2.2 0c0.2 0 0.5 0 0.4-0.3 0-0.1-0.1-0.3-0.3-0.4q0 0-0.1 0 0-0.2 0-0.4 0-3.1 0-6.3 0-2 0-4.1c0-0.1 0.1-0.3 0.2-0.3 0.2-0.1 0.3-0.2 0.2-0.4 0-0.1-0.2-0.3-0.4-0.3q-1.1 0-2.2 0c-0.1 0-0.2 0-0.2 0.1-0.1 0-0.2 0.1-0.3 0.2 0 0.1 0.1 0.3 0.2 0.3 0.3 0.1 0.3 0.3 0.3 0.5q0 2.6 0 5.2z"/>
						<path id="&lt;Path&gt;" class="s1" d="m60.7 27.2c-3.8-0.4-10.9 2.2-12.9 4.5 2.4 0.8 11.7-2.4 12.9-4.5z"/>
						<path id="&lt;Path&gt;" class="s1" d="m32 14.8c-0.9-2.7-6.5-7.2-9.7-7.9q-0.1 0-0.3 0 0.1 0.1 0.2 0.2c2.4 3.7 5.7 6.2 9.8 7.7z"/>
						<path id="&lt;Path&gt;" class="s1" d="m47.6 31.2c2-2.4 3.2-5.2 3.3-8.4q-3 3.6-3.3 8.4z"/>
						<path id="&lt;Path&gt;" class="s1" d="m29 33.9c0.1 0 0.2-0.1 0.3-0.1q-0.1-0.1-0.1-0.2c-0.1-0.1-0.2-0.2-0.2-0.3q0-2.9 0-5.8c0-0.1 0.1-0.2 0.2-0.4 0 0 0.1-0.1 0.1-0.1-0.1-0.1-0.2-0.2-0.2-0.2q-0.7 0-1.3 0c-0.1 0-0.2 0.1-0.2 0.2-0.1 0 0 0.1 0.1 0.1 0 0.2 0.1 0.3 0.1 0.4q0 2.9 0 5.7c0 0.1-0.1 0.3-0.1 0.4-0.1 0-0.1 0.1-0.1 0.2 0 0 0.1 0.1 0.2 0.1q0.3 0 0.6 0 0 0 0 0 0.3 0 0.6 0z"/>
						<path id="&lt;Path&gt;" class="s1" d="m29.2 19.5c0 0 0.1-0.1 0.1-0.2-0.1 0-0.1-0.1-0.2-0.1q-0.7 0-1.4 0c-0.2 0.1-0.2 0.2-0.1 0.4 0.1 0 0.2 0.2 0.2 0.3q0 2.9 0 5.8c0 0.1-0.1 0.2-0.1 0.3-0.1 0-0.1 0.1-0.1 0.2 0 0.1 0.1 0.1 0.2 0.1q0.3 0 0.6 0 0.3 0 0.7 0c0 0 0.1-0.1 0.2-0.1 0-0.1-0.1-0.1-0.1-0.2-0.1-0.1-0.2-0.3-0.2-0.4q0-2.8 0-5.7c0-0.1 0.2-0.2 0.2-0.4z"/>
						<path id="&lt;Path&gt;" class="s1" d="m32.2 5.8q-1.3 4.3 0.2 8.6 1.3-4.4-0.2-8.6z"/>
						<path id="&lt;Path&gt;" class="s1" d="m52.5 6.2q-3.6 1.7-5.2 5.3c2.3-1.2 4.1-2.9 5.2-5.3z"/>
						<path id="&lt;Path&gt;" class="s1" d="m19 24.7q3.4 2.2 7.4 1.8-3.4-2.2-7.4-1.8z"/>
						<path id="&lt;Path&gt;" class="s1" d="m54.7 36c-1-1.6-5-3.7-6.9-3.8 2.1 2 4.3 3.2 6.9 3.8z"/>
						<path id="&lt;Path&gt;" class="s1" d="m24.5 16.4c2.5 0.3 4.9-0.1 7.3-1.2-1.7-0.6-6.5 0.3-7.3 1.2z"/>
						<path id="&lt;Path&gt;" class="s1" d="m24.2 21.7q0.4 2.6 2.3 4.5-0.4-2.6-2.3-4.5z"/>
						<path id="&lt;Path&gt;" class="s1" d="m46.4 6.3q-0.5 2.6 0.6 5 0.5-2.6-0.6-5z"/>
						<path id="&lt;Path&gt;" class="s1" d="m22.9 29.2c1.3-0.4 2.5-1.2 3.4-2.3q-2.1 0.6-3.4 2.3z"/>
						<path id="&lt;Path&gt;" class="s1" d="m47.5 11.8c1.4 0.4 2.8 0.5 4.2 0.2-1.4-0.5-2.8-0.6-4.2-0.2z"/>
					</g>
				</g>
			</g>
			<g id="&lt;Group&gt;">
				<path id="&lt;Path&gt;" class="s1" d="m83.2 43.8q0.9 0 1.6-0.6 0.7-0.8 0.7-1.7 0-1.1-0.7-1.7-0.7-0.7-1.6-0.7-1 0-1.7 0.7-0.8 0.6-0.8 1.7 0 0.9 0.8 1.7 0.7 0.6 1.7 0.6z"/>
				<path id="&lt;Path&gt;" class="s1" d="m94.4 60.8h-1.7v-17.7h1.6v-3.7h-7.7v3.7h0.5q1.3 0 1.3 1.7v16h-1.9v3.4h7.9z"/>
				<path id="&lt;Path&gt;" class="s1" d="m80.6 64.1h4.1l1.2-5.7q2.3-10.4-5.2-13.7v5.5q2.8 1.2 1.4 7.6z"/>
				<path id="&lt;Path&gt;" class="s1" d="m103.6 51.8h-4.8v-8.1h1.9q2 0 2 1.9v5.6h1.7q1.7 0 1.7-2.6v-5.2q0-3.1-2.5-3.1h-3.7l0.4-1.5h-3.8q-0.8 2.2-2 4.3v3.1l0.5-0.4v9.6h5.8q1.6-0.1 1.6 1.8v3.3q-0.2 0.6-1 0.6h-3.1v3.3h5.4q2.7 0 2.7-2.6v-6.9q-0.1-3.1-2.8-3.1z"/>
				<path id="&lt;Path&gt;" class="s1" d="m94 60.1h5.6q1.8 0 1.8-1.9v-1.4h-7.4z"/>
				<path id="&lt;Path&gt;" class="s1" d="m100.8 45.2q-0.7 0-1.1 0.6-0.3 0.7-0.4 1.6 0.1 1 0.4 1.6 0.4 0.7 1.1 0.8 0.6-0.1 1-0.8 0.4-0.6 0.5-1.6-0.1-0.9-0.5-1.6-0.4-0.6-1-0.6z"/>
				<path id="&lt;Compound Path&gt;" fill-rule="evenodd" class="s1" d="m132.5 61h1.2v1.5q0 1.9-2.5 1.9h-23.3v-3.4h1.5v-3.2q0-3.5 3.5-3.5h16.1q3.2 0.2 3.5 3zm-16.3-1.9q0-1.5-1.3-1.5h-1.4v3.4h2.7zm6.1 0q0-1.4-1.2-1.4h-1.3v3.4h2.5zm6.3 0q0-1.6-1.5-1.5h-1.3v3.4h2.8z"/>
				<path id="&lt;Path&gt;" class="s1" d="m112.7 51v-2.8h3.8v1.9q0 0.6-0.7 0.6h-0.9v2.9h3.6q2.5 0 2.5-2.5v-3.6q0-2.5-2.7-2.4h-5.6v-1.6h9.7l2.3 4.3-2.5 0.6v4l4.7-1.4 1.8 2.6h4.9l-2.9-4.2 2.7-1.1v-3.7l-5 1.7-1.5-2.8h4.1q2.3-0.1 2.2-2.7l-1-1.9h-3.9l0.3 1.2h-2.4l-0.2-1.3h-4.6l0.4 1.3h-9.9q-3.5 0-3.5 3.3v10.2h1.8q2.4-0.1 2.5-2.6z"/>
				<path id="&lt;Compound Path&gt;" fill-rule="evenodd" class="s1" d="m160.7 64.2h-25.1v-8.6q0-3.9 4.2-3.9h16.5q4.4 0 4.4 3.8zm-4.6-3.5q0-1-2.1-1h-13.9v1.4h16zm0-4.5q0-1.2-2.1-1.2h-13.9v1.7h16z"/>
				<path id="&lt;Compound Path&gt;" fill-rule="evenodd" class="s1" d="m160.3 50.3h-24.5v-7.6q0-3.8 4.1-3.7h16.6q3.7 0 3.8 3.6zm-4.7-3.3q0-0.9-1.6-0.9h-13.6v1.5h15.2zm0-4.2q0-1.1-1.6-1.1h-13.6v1.6h15.2z"/>
				<path id="&lt;Path&gt;" class="s1" d="m187.9 64.6v-3.6q-5.6 0-7.3-1.3h-2.9v-3.5h-4.8v3.3q-3.9 2-9.9 1.5v3.5q9.2 0.3 13.7-2.7 3.9 2.9 11.2 2.8z"/>
				<path id="&lt;Path&gt;" class="s1" d="m183.5 43.1v1.8h4.4v-1.8q-0.1-3.2-3.4-3.2h-7.8l0.6-1.1h-4.1q-1 1.8-2.7 2.8v4q2.5-0.5 4.9-2.5z"/>
				<path id="&lt;Path&gt;" class="s1" d="m165.3 43.7q1 0 1.6-0.6 0.7-0.8 0.7-1.7 0-1-0.7-1.6-0.6-0.7-1.6-0.7-1 0-1.7 0.7-0.6 0.6-0.6 1.6 0 0.9 0.6 1.6 0.7 0.6 1.7 0.7z"/>
				<path id="&lt;Path&gt;" class="s1" d="m164.2 55.9v4h4.4v-4.8h12q1.9 0 1.9 1.7v3.1h4.5v-4q0-3.7-3.9-3.7h-14.8q-4.1-0.1-4.1 3.7z"/>
				<path id="&lt;Path&gt;" class="s1" d="m183 51.6h5.3l-4.7-5.8h-2.8l1-1.7h-4.8q-2.6 3.6-6.6 3.8v3.7q5.4-0.3 9.3-4.1z"/>
				<path id="&lt;Path&gt;" class="s1" d="m167.6 44.7h-4.1l-0.6 6.7h4z"/>
				<path id="&lt;Path&gt;" class="s1" d="m201.8 64h3.1l0.8-7.7h-2.9z"/>
				<path id="&lt;Path&gt;" class="s1" d="m212.9 56.3h-1.5l1.3 7.6h2.8l-0.9-6.3q-0.3-1.3-1.7-1.3z"/>
				<path id="&lt;Compound Path&gt;" fill-rule="evenodd" class="s1" d="m206.8 64.4v-7.1q0-2.1-2.2-2.1h-2.1v-7l-0.9 0.5v-3.8q1.6-1.3 1.9-2.6h-2.6v19.1q0 2.9-2.3 2.9h-1.8v-21.2q0-4.1 4.4-4.1h14.2v3.3h-7.8l-0.4 1.2h4.5q3.2 0 3.2 3.8v7.9h-3.9v9.2zm-0.3-16.5h4.6v-0.5q0-0.8-1.4-0.8h-3.2zm4.6 4.2v-0.5q0-0.8-1.4-0.8h-3.2v1.3z"/>
				<path id="&lt;Path&gt;" class="s1" d="m192.5 44q1.1 0 1.7-0.7 0.9-0.7 0.9-1.8 0-1.1-0.9-1.7-0.6-0.8-1.7-0.8-1 0-1.8 0.8-0.6 0.6-0.7 1.7 0.1 1.1 0.7 1.8 0.8 0.7 1.8 0.7z"/>
				<path id="&lt;Path&gt;" class="s1" d="m189.8 64.4h4.3l1.4-6.8q1.7-10.6-5.6-12.1v4.6q2.4 1.2 1.7 5.8z"/>
				<path id="&lt;Path&gt;" class="s1" d="m218.1 64.3h4.8l1.1-4.5h-4.7z"/>
				<path id="&lt;Compound Path&gt;" fill-rule="evenodd" class="s1" d="m240.5 58.7h-8v5.7h-4.7v-3.5q-0.1-2.2-2.3-2.2h-8.1v-3.2h10.3q0-1-2.1-1h-7.5v-8.2l-1.1 0.4v-4.6q1.6-1.6 2.1-3.1h4l-0.4 1.2h6.8v-1.4h4.6v1.4h8.1v2.8h-8.1v1.2h7.7v2.5h-7.7v1.3h7.8v2.5h-7.8v1.2h8.1v2.8h-9.7v1h10v1.3q0 1.9-2 1.9zm-11-7.3q0-0.9-2-0.9h-5v1.2h7zm0-3.7q0-1-2-1h-5v1.3h7zm0-3.8q0-1-2-0.9h-5v1.3h7z"/>
				<path id="&lt;Path&gt;" class="s1" d="m238.5 59.7h-3.2l2.1 4.5h4.9l-1.8-3.7q-0.5-0.8-2-0.8z"/>
				<path id="&lt;Path&gt;" class="s1" d="m262 43.3h-4.2v2h-7.8v3.4h5.4q2.5-0.1 2.4 2.3v4.9q0 0.4-0.3 0.6-0.3 0.2-0.9 0.2h-0.4v3.4h3q1.2 0 2.2-0.8 0.6-0.9 0.6-1.6v-9h2.3v-3.4h-2.3z"/>
				<path id="&lt;Path&gt;" class="s1" d="m252.5 49.8l-2.5 9.7h4.3l2.3-9.7z"/>
				<path id="&lt;Compound Path&gt;" fill-rule="evenodd" class="s1" d="m269.9 43v21.3h-25.4v-21.3q0-4.2 4.5-4.1h16.4q4.4-0.1 4.5 4.1zm-4.5 1.6q0-2.4-2.3-2.4h-14.1v18.8h16.4z"/>
				<path id="&lt;Compound Path&gt;" fill-rule="evenodd" class="s1" d="m293.1 64.4h-6.7v-3.3h4.9q0.7 0 0.7-0.6 0-1.2-2-1.2h-12.3v5.1h-4.5v-13.1l-1.5 0.8v-5q2.3-1.5 3.6-3.1h-3.7v-3.6h6.1l1-1.6h5.7l-1.1 1.6h14.1v3.6h-16.4l-1.2 1.8h12.2q4.3 0 4.3 4.7v10.6q0 3.3-3.2 3.3zm-1.1-8.6q0-1.5-2-1.5h-12.3v1.9h14.3zm0-5q0-1.6-2-1.5h-12.3v1.9h14.3z"/>
				<path id="&lt;Path&gt;" class="s1" d="m321.2 57.6h2.5v-3.8h-5.9q-1.6 0-1.5 2.4l3.7 7.8h4.7z"/>
				<path id="&lt;Compound Path&gt;" fill-rule="evenodd" class="s1" d="m315.9 61h1v3.3h-3.5q-2.7 0-2.7-2.6v-18.8q0-4 3.5-4h6.8q3.4 0 3.4 3.6v10.3h-9.4v7.6q0 0.6 0.9 0.6zm-0.9-17h5v-0.3q0-1.5-1.9-1.5h-3.1zm0 5.3h5v-0.7q0-1.3-1.9-1.2h-3.1z"/>
				<path id="&lt;Path&gt;" class="s1" d="m305.6 39.1h-6.7v25.2h4v-21.9h2.2v16.7h-1.2v3.5h2q3.5 0 3.8-3.3v-8.8h-2.9q2.9-1.5 2.9-4.1v-4.1q0.1-3.4-4.1-3.2z"/>
				<path id="&lt;Path&gt;" class="s1" d="m331.8 49.1l2.9-10h-4.8l-3.7 11.7h3.3q1.6 0 2.3-1.7z"/>
				<path id="&lt;Path&gt;" class="s1" d="m342.6 54.8l2.2 4.6q0.6 1.3-0.5 1.3h-11.2l8.5-12.9h-5.6l-8.9 13.1q-0.5 2.9 2.2 3.5h14.4q2.2-0.3 2.8-1.4l0.8 1.3h4.7l-4.3-9.5z"/>
				<path id="&lt;Path&gt;" class="s1" d="m344.5 44l2.4 6.7h4.7l-3.4-9.8q-0.7-1.9-3.1-1.8h-9.5v4.1h7.5q0.9 0 1.4 0.8z"/>
				<path id="&lt;Path&gt;" class="s1" d="m374.6 39.3h-20.8v3.6h17.5q2.6 0 2.6 2.2v19.2h1.8q2.7 0 2.7-2.6v-19.1q0-3.3-3.8-3.3z"/>
				<path id="&lt;Compound Path&gt;" fill-rule="evenodd" class="s1" d="m371.7 63.1h-17.7v-9.3q0-3.2 3.9-3.1h10.1q3.7-0.1 3.7 3.1zm-4.5-7.3q0-1.5-1.6-1.5h-7.1v5.5h8.7z"/>
				<path id="&lt;Path&gt;" class="s1" d="m372.1 45.1h-18.5v3.5h18.5z"/>
				<g id="&lt;Group&gt;">
					<g id="&lt;Group&gt;">
						<path id="&lt;Compound Path&gt;" class="s1" d="m89.3 68.4v11.2h-2.1v-3.4q-0.2-1.1-1.8-1.2h-1.8v4.6h-2.2v-11.2h2.2v4.6h3.6v-4.6z"/>
						<path id="&lt;Compound Path&gt;" class="s1" d="m101.7 75v2.7q-0.1 1.8-2.3 1.9h-4.6v-1.9h4.7v-1.5q-0.1-1.1-1.6-1.2h-1.1q-2 0-2-1.8v-2.9q0-1.9 2.1-1.9h4.8v1.9h-4.8v2.7h2.7q2 0.1 2.1 2z"/>
						<path id="&lt;Compound Path&gt;" class="s1" d="m114.2 77.7v1.9h-4.7q-2.4 0-2.4-2.2v-6.7q0.1-2.3 2.5-2.3h4.6v1.9h-3.2q-1.5 0.1-1.7 1.6v5.8z"/>
						<path id="&lt;Compound Path&gt;" fill-rule="evenodd" class="s1" d="m132.2 75.1l2.8 4.5h-2.6l-2.6-4.5h-0.4v4.5h-2.2v-11.2h5.4q2.1 0 2.2 1.9v3q-0.1 1.7-1.8 1.8zm-2.8-4.8v3h3.2v-1.8q-0.1-1.1-1.6-1.2z"/>
						<path id="&lt;Compound Path&gt;" fill-rule="evenodd" class="s1" d="m147.1 73.2v3.2h-4.6v1.3h4.6v1.9h-4.7q-2-0.1-2-1.6v-4.6q0-2.1 2-2.1h2.6q2 0 2.1 1.9zm-4.6 1.4h2.5v-0.6q-0.1-1-1.4-1h-1.1z"/>
						<path id="&lt;Compound Path&gt;" class="s1" d="m159.1 71.3v1.9h-4.4v1.3h2.6q1.7 0.1 1.8 1.7v1.9q0 1.5-1.8 1.5h-4.8v-1.9h4.4v-0.4q-0.1-0.8-1.2-0.9h-1.5q-1.6 0-1.7-1.4v-2.2q0-1.5 1.8-1.5z"/>
						<path id="&lt;Compound Path&gt;" fill-rule="evenodd" class="s1" d="m171.5 73.3v4.5q-0.1 1.7-2 1.8h-2.8q-2 0-2-1.7v-4.8q0-1.8 2-1.8h2.8q1.9 0 2 2zm-2.2 4.4v-3.4q-0.1-1-1.4-1.1h-1v4.5z"/>
						<path id="&lt;Compound Path&gt;" class="s1" d="m183.8 71.3v6.6q0 1.6-1.9 1.7h-3q-1.9 0-1.9-1.7v-6.6h2.2v5.8q0 0.6 0.6 0.6h1.2q0.6 0 0.7-0.6v-5.8z"/>
						<path id="&lt;Compound Path&gt;" class="s1" d="m193.2 71.3v1.9h-0.9q-0.7 0.1-0.8 0.8v5.6h-2.2v-6.3q0-2 2.3-2z"/>
						<path id="&lt;Compound Path&gt;" class="s1" d="m203.9 77.7v1.9h-3.3q-2.1 0-2.1-1.9v-4.4q0.1-1.9 1.9-2h3.5v1.9h-2q-1.1 0.2-1.3 1.4v3.1z"/>
						<path id="&lt;Compound Path&gt;" fill-rule="evenodd" class="s1" d="m215.9 73.2v3.2h-4.5v1.3h4.5v1.9h-4.6q-2-0.1-2.1-1.6v-4.6q0.1-2.1 2-2.1h2.7q2 0 2 1.9zm-4.5 1.4h2.4v-0.6q-0.1-1-1.3-1h-1.1z"/>
						<path id="&lt;Compound Path&gt;" class="s1" d="m236.7 75.2v2.3q0 2.1-2.2 2.1h-3.2q-2.2 0-2.2-2v-6.8q-0.1-2.5 2.6-2.4h4.5v1.9h-3.4q-1.4 0.1-1.6 1.4v6h3.4v-1.4q-0.1-0.9-1.2-0.9h-0.6v-2h2.2q1.6 0.1 1.7 1.8z"/>
						<path id="&lt;Compound Path&gt;" class="s1" d="m246.1 71.3v1.9h-0.8q-0.8 0.1-0.8 0.8v5.6h-2.2v-6.3q0-2 2.2-2z"/>
						<path id="&lt;Compound Path&gt;" fill-rule="evenodd" class="s1" d="m258.3 73.3l-0.1 4.5q0 1.7-2 1.8h-2.8q-1.9 0-1.9-1.7v-4.8q0-1.8 2-1.8h2.7q2 0 2 2zm-2.1 4.4v-3.4q-0.1-1-1.4-1.1h-1v4.5z"/>
						<path id="&lt;Compound Path&gt;" class="s1" d="m270.6 71.3v6.6q0 1.6-1.9 1.7h-3.1q-1.8 0-1.8-1.7v-6.6h2.2v5.8q0 0.6 0.6 0.6h1.2q0.6 0 0.7-0.6v-5.8z"/>
						<path id="&lt;Compound Path&gt;" fill-rule="evenodd" class="s1" d="m282.9 73.3v4.6q-0.1 1.6-2 1.7h-2.6v3.2h-2.2v-9.5q0.1-2 2-2h2.7q2 0 2.1 2zm-4.6 4.4h2.4v-3.4q-0.1-1-1.3-1.1h-1.1z"/>
						<path id="&lt;Compound Path&gt;" class="s1" d="m303.2 77.7v1.9h-4.7q-2.4 0-2.4-2.2v-6.7q0-2.3 2.5-2.3h4.6v1.9h-3.2q-1.5 0.1-1.7 1.6v5.8z"/>
						<path id="&lt;Compound Path&gt;" fill-rule="evenodd" class="s1" d="m315.3 73.3v4.5q0 1.7-2 1.8h-2.8q-1.9 0-1.9-1.7v-4.8q0-1.8 2-1.8h2.7q2 0 2 2zm-2.1 4.4v-3.4q-0.1-1-1.5-1.1h-1v4.5z"/>
						<path id="&lt;Compound Path&gt;" class="s1" d="m323.8 80.8h-1.7v-0.1q1-0.9 1.3-1.9 0-0.2-0.1-0.2-1.4-0.1-1.6-1.5 0.2-1.7 1.8-1.8 2 0.1 2 2.1-0.1 1.8-1.7 3.4z"/>
						<path id="&lt;Compound Path&gt;" class="s1" d="m341.5 76.9v2.7h-2.8v-2.7z"/>
						<path id="&lt;Compound Path&gt;" class="s1" d="m353.8 77.7v1.9h-4.6q-2.4 0-2.4-2.2v-9h2.2v8.6q0 0.7 0.7 0.7z"/>
						<path id="&lt;Compound Path&gt;" class="s1" d="m365.4 68.4v1.9h-2.4v9.3h-2.3v-7.8q-0.1-1.4-1.7-1.5h-0.6v-1.9z"/>
						<path id="&lt;Compound Path&gt;" fill-rule="evenodd" class="s1" d="m378.2 70.8v6.7q-0.1 2-2.3 2.1h-5.6v-11.2h5.2q2.6 0.2 2.7 2.4zm-2.2 6.9v-5.9q-0.2-1.3-1.8-1.5h-1.7v7.4z"/>
					</g>
				</g>
			</g>
		</g>
	</g>
</svg>